<svg width="20" height="20" viewBox="0 0 20 20" fill="none" xmlns="http://www.w3.org/2000/svg">
<path d="M6 5H8V10H6V5ZM2.22 0H17.78C19 0 20 1 20 2.22V17.78C20 18.3688 19.7661 18.9334 19.3498 19.3498C18.9334 19.7661 18.3688 20 17.78 20H2.22C1 20 0 19 0 17.78V2.22C0 1.63122 0.233892 1.06655 0.650223 0.650223C1.06655 0.233892 1.63122 0 2.22 0ZM10 2C7.87827 2 5.84344 2.84285 4.34315 4.34315C2.84285 5.84344 2 7.87827 2 10C2 12.1217 2.84285 14.1566 4.34315 15.6569C5.84344 17.1571 7.87827 18 10 18C12.1217 18 14.1566 17.1571 15.6569 15.6569C17.1571 14.1566 18 12.1217 18 10C18 7.87827 17.1571 5.84344 15.6569 4.34315C14.1566 2.84285 12.1217 2 10 2ZM12 5.5H14V9.5H12V5.5ZM8.5 14.25C8.5 13.8522 8.65804 13.4706 8.93934 13.1893C9.22064 12.908 9.60218 12.75 10 12.75C10.3978 12.75 10.7794 12.908 11.0607 13.1893C11.342 13.4706 11.5 13.8522 11.5 14.25V15H8.5V14.25Z" fill="white"/>
</svg>
